<svg xmlns="http://www.w3.org/2000/svg" viewBox="0 0 256 256" width="256" height="256">
  <defs>
    <linearGradient id="trackGrad3c" x1="0%" y1="0%" x2="100%" y2="0%">
      <stop offset="0%" style="stop-color:#F59E0B"/>
      <stop offset="100%" style="stop-color:#EF4444"/>
    </linearGradient>
  </defs>
  <rect width="256" height="256" rx="48" fill="#0B1121"/>
  <!-- Globe outline - prominent -->
  <circle cx="128" cy="128" r="90" fill="none" stroke="#3B82F6" stroke-width="4.5"/>
  <!-- Latitude arcs -->
  <ellipse cx="128" cy="128" rx="90" ry="34" fill="none" stroke="#3B82F6" stroke-width="2" opacity="0.25"/>
  <ellipse cx="128" cy="128" rx="90" ry="66" fill="none" stroke="#3B82F6" stroke-width="2" opacity="0.2"/>
  <!-- Meridians -->
  <ellipse cx="128" cy="128" rx="38" ry="90" fill="none" stroke="#3B82F6" stroke-width="2" opacity="0.25"/>
  <!-- Crosshair ticks -->
  <line x1="128" y1="24" x2="128" y2="36" stroke="#60A5FA" stroke-width="3.5" stroke-linecap="round" opacity="0.5"/>
  <line x1="128" y1="220" x2="128" y2="232" stroke="#60A5FA" stroke-width="3.5" stroke-linecap="round" opacity="0.5"/>
  <line x1="24" y1="128" x2="36" y2="128" stroke="#60A5FA" stroke-width="3.5" stroke-linecap="round" opacity="0.5"/>
  <line x1="220" y1="128" x2="232" y2="128" stroke="#60A5FA" stroke-width="3.5" stroke-linecap="round" opacity="0.5"/>
  <!-- BOLD tracked route - high contrast amber on blue globe -->
  <path d="M66 168 L92 142 L118 155 L146 120 L172 108 L196 86" 
        fill="none" stroke="url(#trackGrad3c)" stroke-width="7" stroke-linecap="round" stroke-linejoin="round"/>
  <!-- Track start -->
  <circle cx="66" cy="168" r="7" fill="#F59E0B"/>
  <circle cx="66" cy="168" r="3.5" fill="#FEF3C7"/>
  <!-- Waypoints -->
  <circle cx="92" cy="142" r="4.5" fill="#F59E0B" opacity="0.7"/>
  <circle cx="118" cy="155" r="4.5" fill="#F97316" opacity="0.7"/>
  <circle cx="146" cy="120" r="4.5" fill="#F97316" opacity="0.7"/>
  <circle cx="172" cy="108" r="4.5" fill="#EF4444" opacity="0.7"/>
  <!-- Current position - big and bright -->
  <circle cx="196" cy="86" r="20" fill="#EF4444" opacity="0.15"/>
  <circle cx="196" cy="86" r="13" fill="#EF4444"/>
  <circle cx="196" cy="86" r="6" fill="#FEE2E2"/>
</svg>